<?xml version="1.0" encoding="utf-8" ?>
<svg xmlns="http://www.w3.org/2000/svg" xmlns:xlink="http://www.w3.org/1999/xlink" width="1024" height="1024">
	<path d="M396.274 208.209C400.422 207.385 405.815 207.906 409.977 208.651Q411.013 208.837 412.039 209.074Q413.065 209.31 414.077 209.597Q415.09 209.885 416.088 210.221Q417.085 210.558 418.065 210.944Q419.044 211.329 420.003 211.763Q420.963 212.197 421.899 212.677Q422.836 213.158 423.748 213.684Q424.66 214.21 425.544 214.78Q426.429 215.351 427.285 215.965Q428.14 216.578 428.964 217.233Q429.788 217.888 430.579 218.583Q431.37 219.278 432.125 220.011Q432.88 220.745 433.599 221.514Q434.317 222.284 434.996 223.088Q435.676 223.892 436.314 224.729Q436.953 225.566 437.55 226.433C444.849 237.105 446.583 249.609 444.242 262.125C447.595 260.801 451.157 260.031 454.731 259.603C468.934 257.902 484.014 261.982 495.197 270.954C507.142 280.537 513.882 294.113 515.387 309.246C516.928 324.742 514.151 338.818 504.022 350.972C494.997 361.802 483.11 366.482 469.347 367.656C475.384 377.823 479.329 386.031 478.544 398.127C477.756 410.285 472.583 421.346 463.355 429.359C452.919 438.42 438.171 444.62 424.215 443.592C426.865 450.266 429.734 456.925 431.742 463.825C440.779 494.867 442.64 530.035 446.122 562.212C446.658 567.164 446.882 572.147 447.566 577.08L567.221 576.038C593.116 575.881 619.051 576.219 644.938 575.606C645.078 570.51 646.126 565.586 647.19 560.623C644.803 558.299 642.82 556.135 641.505 553.001C636.927 542.095 644.064 528.405 648.008 518.293C646.753 517.582 645.521 516.822 644.38 515.936C641.863 513.982 640.372 510.681 640.001 507.562C639.498 503.336 640.572 498.827 643.358 495.549C646.406 491.962 649.938 490.963 654.46 490.722C658.237 474.692 668.674 460.929 681.136 450.503C703.517 431.778 733.153 424.253 761.906 426.892C790.042 429.474 816.532 441.929 834.75 463.862C850.449 482.762 855.552 504.801 853.31 528.936C856.171 532.084 858.591 535.388 858.961 539.771C859.397 544.944 856.593 548.795 853.385 552.482C860.775 558.53 880.673 572.88 884.963 580.407C885.692 581.685 885.693 582.641 885.357 584.059C884.449 585.117 884.274 585.579 882.799 585.69C877.323 586.103 849.679 566.517 844.07 562.065C842.043 567.4 840.684 572.963 838.538 578.276C829.977 599.464 816.691 611.107 798.086 623.35C816.923 633.43 832.188 643.704 845.969 660.503C875.243 696.191 883.333 737.224 878.845 782.38C885.559 782.075 933.99 781.729 937.078 782.74C938.219 783.114 938.612 783.401 939.103 784.475C938.83 785.244 938.877 785.396 938.309 785.97C938.283 785.996 937.014 787.032 936.923 787.071C934.743 787.992 856.353 787.03 846.631 786.868L790.325 786.276C780.479 786.087 770.348 785.023 760.539 785.384C753.927 785.628 747.294 786.552 740.708 787.185C724.549 788.739 707.712 790.571 691.484 790.425C685.799 790.374 680.036 790.16 674.431 789.147C669.188 788.199 663.886 786.617 658.558 786.319C637.328 785.13 615.773 786.227 594.495 785.867C590.126 785.793 585.705 785.733 581.356 785.309C577.274 784.911 573.272 784.108 569.159 783.993L568.506 783.981C572.643 797.785 579.066 811.033 583.883 824.642C611.28 825.832 639.147 824.393 666.573 823.983L803.058 822.303Q825.337 821.987 847.618 821.925C855.371 821.888 863.288 821.526 871.026 821.924C873.598 822.056 876.935 822.096 878.975 823.862C881.13 825.726 881.91 828.182 882.087 830.964C882.248 833.476 882.291 837.03 880.336 838.945C877.791 841.438 872.893 840.805 869.625 840.823L595.338 844.168Q532.879 845.786 470.399 846.058C464.798 846.086 459.216 846.749 453.621 846.724C451.432 846.714 449.084 846.43 447.175 845.28C445.231 844.109 444.149 842.154 443.684 839.979C442.944 836.513 443.187 831.409 445.281 828.425C445.824 827.652 446.336 827.292 447.256 827.061C450.084 826.355 453.536 826.775 456.461 826.709C463.893 826.541 478.086 826.89 484.944 825.761C485.828 824.79 485.796 824.079 486.063 822.831C485.403 821.881 485.076 821.601 483.979 821.115C477.299 818.159 468.266 816.849 461.06 815.478C418.614 807.403 371.444 809.943 331.492 827.25C326.448 829.435 321.397 831.82 316.765 834.795C308.774 839.929 301.78 845.773 292.796 849.242C280.798 853.875 263.431 856.134 251.437 850.494C248.122 848.934 244.596 846.348 243.382 842.734C242.245 839.351 243.659 836.773 245.138 833.814C244.063 833.362 231.64 836.73 229.127 836.978C211.028 838.764 191.502 836.988 175.242 828.28C164.86 822.721 155.492 812.256 154.958 800.053C154.627 792.508 157.053 784.994 159.273 777.883C165.285 758.623 174.175 736.518 168.036 716.249C164.559 704.77 156.563 697.059 146.255 691.452C143.448 703.778 137.837 715.329 127.115 722.626C121.465 726.472 114.332 729.135 107.457 727.641Q106.674 727.47 105.912 727.221Q105.15 726.972 104.417 726.647Q103.684 726.322 102.988 725.924Q102.292 725.526 101.639 725.06Q100.987 724.593 100.386 724.063Q99.7841 723.533 99.2394 722.945Q98.6946 722.357 98.2123 721.716Q97.73 721.076 97.3151 720.39C94.7055 716.132 94.1871 711.098 95.4827 706.309C97.5261 698.756 103.601 692.541 110.235 688.695C120.413 682.793 131.295 682.721 142.394 685.608C142.723 678.202 142.623 671.047 141.047 663.764C137.443 647.107 127.926 631.877 119.568 617.239C113.309 606.276 107.124 595.316 101.906 583.807Q100.1 579.812 98.4874 575.736Q96.875 571.659 95.4602 567.509Q94.0453 563.36 92.8313 559.147Q91.6173 554.935 90.6069 550.669Q89.5965 546.403 88.7921 542.093Q87.9877 537.784 87.3911 533.44Q86.7944 529.097 86.407 524.73Q86.0196 520.363 85.8422 515.983C84.5874 487.195 90.4019 454.668 111.828 433.705C119.633 426.07 128.744 420.461 136.22 412.31C133.805 410.457 131.297 408.434 130.095 405.55C127.713 399.833 132.294 391.7 134.39 386.253C131.786 380.309 129.872 374.401 129.402 367.884C128.319 352.883 133.209 335.903 143.216 324.502C148.587 318.383 155.581 314.462 163.778 313.948C165.719 307.539 177.18 283.895 181.123 278.62C183.29 275.72 186.149 273.127 189.285 271.298C191.9 269.774 199.009 270.036 199.928 269.175C204.044 265.315 210.587 242.515 215.046 238.212C215.769 237.515 216.446 237.282 217.464 237.444C219.776 237.811 222.511 239.26 223.671 241.255C223.434 247.149 213.188 266.399 210.105 273.036C212.66 275.2 214.542 277.341 216 280.386Q216.322 281.046 216.595 281.727Q216.868 282.408 217.091 283.107Q217.314 283.806 217.486 284.52Q217.658 285.233 217.778 285.957Q217.898 286.681 217.965 287.412Q218.032 288.143 218.047 288.876Q218.061 289.61 218.022 290.343Q217.983 291.076 217.891 291.804C217.095 297.668 213.71 303.668 211.288 309.033C206.416 319.823 200.646 330.955 196.957 342.191L196.73 342.893C198.518 342.705 200.356 342.707 202.081 343.266C205.033 344.223 207.587 346.302 208.979 349.088C211.287 353.707 210.349 358.312 208.698 362.914C219.046 369.604 228.335 378.241 237.942 385.947Q257.487 401.669 278.048 416.036C282.233 412.057 286.84 408.454 291.169 404.624C283.874 399.252 277.883 392.599 275.298 383.738C272.833 375.291 273.945 367.496 278.1 359.788C270.133 354.958 263.08 350.07 258.836 341.493C255.113 333.97 254.221 325.105 257.036 317.134C260.872 306.274 269.682 299.51 279.766 294.886C278.965 292.157 278.287 289.494 278.427 286.614C278.61 282.845 280.12 279.213 283.025 276.743C286.682 273.635 290.786 273.156 295.36 273.501C295.089 270.847 294.942 268.154 294.851 265.488C294.446 253.583 297.285 241.792 305.667 232.929C312.014 226.217 320.542 222.608 329.746 222.394C338.835 222.183 345.48 224.031 352.155 230.469C363.901 216.955 378.594 209.9 396.274 208.209ZM339.84 583.837C337.109 594.561 337.781 606.925 337.894 617.956C338.244 651.882 340.999 685.246 345.025 718.919C346.105 727.95 346.96 745.852 351.41 753.409C352.307 754.931 353.185 755.404 354.852 755.813C364.582 758.203 381.447 756.843 391.867 756.833L448.186 756.923Q475.627 757.064 503.065 756.656C505.073 748.568 507.859 740.657 515.503 736.193C522.743 731.965 533.399 732.335 541.284 734.598C546.999 736.238 550.831 739.351 553.65 744.581C555.738 748.455 557.05 752.808 558.33 757.006L637.222 756.768C653.171 756.796 669.424 757.656 685.331 756.432C684.966 738.602 676.724 584.723 674.924 580.91C670.364 578.397 609.13 580.423 598.115 580.218C590.688 580.802 583.079 580.512 575.628 580.541L534.467 580.719L404.751 582.002C390.044 582.153 375.37 581.988 360.667 582.436C353.798 582.645 346.607 582.55 339.84 583.837ZM140.425 414.766C132.157 423.123 122.603 429.692 114.25 437.828C95.6256 455.968 89.6505 484.281 89.7949 509.387Q89.8094 513.94 90.059 518.486Q90.3087 523.033 90.7928 527.56Q91.2769 532.088 91.9942 536.584Q92.7115 541.08 93.6601 545.533Q94.6087 549.987 95.786 554.385Q96.9633 558.783 98.3663 563.115Q99.7692 567.446 101.394 571.7Q103.019 575.953 104.861 580.117C109.553 590.746 115.097 601.061 120.922 611.105C135.084 635.523 149.163 657.312 146.539 686.934C158.156 692.466 167.141 700.825 171.479 713.2C179.205 735.242 169.556 759.301 163.042 780.366C160.906 787.274 158.254 795.002 159.365 802.323C160.979 812.97 170.888 820.952 180.016 825.424C199.93 835.178 225.704 835.442 246.434 828.135C252.039 826.16 278.97 812.514 281.401 812.812C282.526 813.626 282.822 813.755 283.341 815.018C282.771 817.138 281.148 818.049 279.347 819.099C271.446 823.71 249.795 830.91 247.305 839.692C247.005 840.748 247.069 841.893 247.654 842.845C249.979 846.629 258.805 848.291 263.005 848.757C294.238 852.229 304.064 834.02 328.841 823.271C366.301 807.02 409.442 803.988 449.6 809.221C462.217 810.866 475.62 813.375 487.469 818.04L496.395 784.342Q485.761 784.072 475.125 784.223C469.773 784.197 443.677 785.135 441.275 783.052C440.905 781.964 440.85 781.954 441.247 780.887C445.788 778.09 487.813 779.949 497.179 780.008C498.792 773.916 500.315 767.782 502.036 761.72Q470.356 761.477 438.676 761.617C418.191 761.587 397.637 761.252 377.156 761.623C377.58 767.02 378.406 772.284 379.3 777.616C387.498 777.906 396.498 776.885 402.738 783.376C404.119 784.813 405.248 786.466 406.254 788.179C412.639 788.156 422.48 786.913 428.013 790.516L427.795 791.657C425.127 793.138 422.195 793.351 419.196 793.419C406.658 793.706 394.024 793.199 381.471 793.161L281.017 792.795Q243.336 793 205.655 792.65C199.138 792.631 184.761 793.769 179.479 792.328C178.453 792.048 177.779 791.719 177.118 790.884C177.095 790.251 176.885 789.85 177.398 789.377C178.526 788.337 180.468 788.146 181.93 788.017C187.769 787.505 193.9 788.026 199.785 788.035C210.105 788.051 220.412 787.884 230.733 788.039C232.354 783.481 234.121 779.71 238.746 777.501C243.606 775.178 249.987 775.727 255.258 775.785C254.266 767.847 250.835 759.968 248.639 752.267C245.822 742.389 243.642 732.255 241.391 722.236Q234.012 689.946 230.596 657C229.634 647.82 229.339 638.614 228.462 629.442C226.155 627.685 225.599 626.121 225.218 623.272C224.447 617.505 224.837 611.335 224.974 605.526C225.761 572.233 231.877 538.742 239.491 506.406C220.564 484.719 199.807 464.793 181.842 442.282C178.986 438.703 160.671 412.184 158.708 411.221C156.732 414.169 154.878 417.526 151.099 418.296C147.458 419.039 143.45 416.467 140.425 414.766ZM184.489 370.874C184.36 367.923 184.255 365.004 183.792 362.082C180.196 351.688 175.247 340.119 166.066 333.476C164.078 332.037 160.217 330.421 160.791 327.695C162.372 326.889 163.844 327.129 165.529 327.687C174.088 330.521 181.289 343.657 184.879 351.322Q186.039 353.833 187.114 356.382C188.066 356.194 187.726 356.429 188.319 355.579C189.572 353.782 190.221 351.187 190.767 349.067C188.063 338.492 181.335 328.259 171.8 322.665C169.01 321.028 165.213 319.118 161.959 319.078C153.355 320.939 147.416 325.634 142.721 332.905C135.527 344.048 131.546 360.056 134.479 373.168C135.906 379.547 139.182 386.532 144.832 390.149C147.961 392.152 152.004 393.16 155.678 392.341C158.135 391.794 160.545 390.457 162.821 389.391C170.787 385.66 178.375 381.5 182.976 373.652Q183.775 372.286 184.489 370.874ZM129.293 687.689C118.862 689.041 108.752 692.449 102.218 701.261C99.7037 704.652 97.7905 709.257 98.4614 713.555C98.9428 716.639 100.798 718.925 103.343 720.623C105.909 722.334 108.641 723.287 111.683 723.693C120.405 722.677 127.036 718.76 132.428 711.936C137.642 705.34 140.517 697.603 141.792 689.361C137.779 688.577 133.384 687.381 129.293 687.689ZM583.293 778.749C598.404 774.151 611.005 774.285 626.415 777.268C635.021 779.149 643.456 780.766 652.312 780.728C641.809 773.148 622.274 762.43 609.249 762.188C600.438 763.071 592.423 766.228 586.754 773.374Q584.762 775.893 583.293 778.749ZM507.608 756.754C516.244 757.029 525.362 757.377 533.979 756.818C540.488 756.862 547.099 757.118 553.593 756.728C551.385 750.014 549.105 743.42 542.312 740.052C537.838 737.835 532.158 737.328 527.219 737.686C521.653 738.454 516.921 739.34 513.213 744.029C510.39 747.598 508.832 752.417 507.608 756.754ZM374.076 769.873C367.918 770.062 361.817 770.093 355.66 769.9L358.083 777.003Q366.285 776.437 374.457 775.537C375.24 774.384 374.868 773.572 374.617 772.231C374.469 771.44 374.269 770.654 374.076 769.873ZM682.744 618.283C682.614 621.513 682.801 624.646 683.051 627.866C686.004 627.238 688.966 626.641 691.892 625.894L692.598 625.288C689.751 622.495 685.954 620.659 682.744 618.283ZM658.559 575.634L662.303 575.465C661.529 573.032 660.125 570.774 659.068 568.449Q657.617 565.175 656.526 561.765Q655.435 558.354 654.718 554.846C653.161 561.639 651.275 568.536 651.02 575.532C653.58 575.728 655.998 575.753 658.559 575.634ZM713.602 634.027C714.916 641.611 717.852 648.159 724.334 652.78C729.076 656.16 734.858 657.619 740.615 656.608C745.849 655.69 749.933 652.955 753.594 649.251C756.509 645.086 758.289 641.168 759.658 636.272C743.783 638.912 729.215 637.295 713.602 634.027ZM555.366 761.609Q539.543 761.464 523.72 761.522C518.002 761.539 512.133 761.84 506.429 761.517C504.178 769.152 502.618 776.951 500.752 784.684Q495.702 805.382 490.291 825.988L561.375 825.047L579.389 824.702C573.616 809.991 567.694 795.408 562.186 780.589C559.855 774.317 557.232 768.031 555.366 761.609ZM348.057 422.129C350.799 418.668 352.31 415.292 353.741 411.146C342.195 410.023 332.215 408.017 321.429 403.589C320.272 409.824 320.135 415.461 324.011 420.896C326.259 424.048 329.536 426.201 333.394 426.736C338.9 427.5 343.732 425.274 348.057 422.129ZM566.469 779.172C570.407 779.418 574.374 779.58 578.297 780.003C579.236 775.913 580.457 773.257 583.097 769.979C586.357 766.599 589.521 764.217 593.675 762.029L560.25 762.036C562.283 767.753 564.57 773.413 566.469 779.172ZM188.056 361.917C188.997 368.042 190.039 373.457 186.139 378.87C181.853 384.817 175.187 387.974 169.333 392.01C167.739 396.776 165.845 400.145 162.723 404.072L169.212 399.529C178.949 392.063 203.864 369.219 205.502 356.77C205.815 354.393 205.396 351.958 203.917 350.024C202.026 347.552 199.394 346.359 196.471 345.582C194.739 353.32 194.407 356.703 188.056 361.917ZM839.92 555.704C833.247 551.232 823.741 551.404 816.062 549.421C808.796 547.544 801.479 544.961 794.597 541.979C783.677 536.968 772.104 531.728 762.308 524.733C756.182 520.36 750.926 514.933 744.635 510.78C746.726 516.046 749.244 523.492 753.229 527.641C756.681 531.235 771.171 539.693 770.893 544.327C769.999 545.47 769.753 545.604 768.404 546.164C762.825 545.951 757.947 539.013 753.445 536.16C749.314 533.541 744.288 532.914 739.907 530.863C733.924 528.061 728.492 524.278 722.405 521.615C718.579 538.342 712.327 555.116 702.588 569.376L703.183 569.578C705.878 570.46 714.989 570.25 715.227 570.441C715.486 570.649 715.605 570.987 715.795 571.26C715.432 572.6 714.782 573.334 713.61 574.046C710.993 575.637 707.773 575.952 704.841 575.169C701.629 574.311 699.546 572.433 697.358 570.032C707.592 551.859 712.898 540.01 718.867 519.689C703.296 510.227 688.312 499.614 672.577 490.456C663.066 514.176 652.158 541.506 662.994 566.525C664.253 569.432 665.723 572.284 667.171 575.101C671.071 575.013 674.971 574.65 678.028 577.569C679.304 578.788 680.082 580.367 680.496 582.069C682.147 588.858 681.51 603.814 682.281 612.054C705.994 629.583 728.822 636.382 758.499 631.818C783.683 627.945 809.084 614.903 824.31 594.067C832.426 582.96 838.052 569.346 839.92 555.704ZM303.923 638.556C299.629 638.265 295.363 637.957 291.054 638.036C289.166 648.644 287.186 659.196 285.918 669.904C283.21 692.768 282.392 716.067 281.409 739.062C281.063 747.15 281.35 755.284 280.909 763.354C280.419 772.306 277.041 778.739 279.056 788.043L344.625 787.882C348.897 787.917 353.195 788.055 357.464 787.918C355.757 782.18 354.248 772.158 348.988 768.904C347.223 767.812 346.436 766.705 345.575 764.831C341.548 756.067 338.963 745.851 335.704 736.73Q322.247 699.817 310.403 662.356C307.985 654.5 306.419 646.37 303.923 638.556ZM275.066 775.874C275.409 773.184 275.692 770.525 275.856 767.817L259.293 767.991C259.563 770.541 259.76 773.121 260.208 775.647C263.258 775.795 272.777 776.994 275.066 775.874ZM721.274 715.146C710.23 716.768 699.367 719.004 688.373 720.824Q688.594 731.431 689.366 742.013C689.616 745.984 690.257 750.233 689.961 754.19C689.828 755.975 689.381 757.968 688.127 759.32C686.977 760.559 685.382 761.17 683.751 761.466C679.253 762.282 674.09 761.789 669.526 761.758Q660.006 761.715 650.487 761.885C650.425 767.298 650.629 772.91 654.699 777.011C657.52 779.853 661.625 781.487 665.375 782.727C684.092 788.55 714.153 785.409 734.114 783.693L734.009 783C732.946 775.77 732.91 768.377 732.184 761.102C731.518 754.429 726.914 718.147 723.73 714.939C722.918 715.005 722.078 715.028 721.274 715.146ZM645.957 761.596C638.713 761.37 631.405 761.515 624.178 761.089C627.623 762.665 645.754 772.39 647.867 772.347C646.442 768.679 645.957 765.521 645.957 761.596ZM648.973 556.439C650.91 553.714 652.403 544.784 651.914 541.532C651.766 540.545 651.548 540.098 650.938 539.343C650.173 539.142 649.5 538.974 648.709 538.898C646.697 539.89 645.455 540.588 644.683 542.82C643.59 545.982 644.618 549.627 646.119 552.48Q647.265 554.662 648.973 556.439ZM874.749 782.333C875.398 773.822 876.13 765.326 875.941 756.781C875.192 722.975 863.877 688.744 841.764 662.825C837.275 657.564 832.471 652.412 827.286 647.837C821.704 642.911 800.003 627.246 792.886 626.447C792.689 626.425 792.49 626.445 792.291 626.443C782.834 630.825 773.601 633.776 763.466 636.158C762.173 644.451 759.207 651.655 752.083 656.716Q751.545 657.094 750.989 657.446Q750.433 657.797 749.86 658.121Q749.287 658.445 748.7 658.74Q748.112 659.036 747.51 659.302Q746.909 659.568 746.295 659.804Q745.681 660.041 745.056 660.247Q744.432 660.453 743.797 660.628Q743.163 660.804 742.522 660.948Q741.88 661.092 741.232 661.204Q740.583 661.316 739.93 661.397Q739.278 661.477 738.622 661.526Q737.966 661.574 737.308 661.591Q736.65 661.607 735.993 661.591Q735.335 661.575 734.679 661.527Q734.023 661.479 733.37 661.398Q732.717 661.318 732.069 661.206C725.009 659.958 719.055 656.019 715.036 650.108C711.599 645.054 709.764 639.121 709.197 633.065L699.13 628.495C693.805 630.528 689.162 631.704 683.472 632.13C685.917 660.264 685.548 688.7 688.083 716.846C711.301 711.431 734.773 708.732 758.454 706.384C762.799 697.183 783.784 661.296 792.167 658.191C792.873 657.93 792.503 658.023 793.546 658.26C793.587 660.684 780.76 676.881 778.207 680.814C773.083 688.707 768.13 697.211 764.402 705.857C767.725 705.64 773.392 704.663 776.178 706.521C775.902 707.595 775.901 707.88 774.911 708.519C772.947 709.787 735.442 712.694 728.736 714.019C732.758 737.076 737.439 759.694 738.046 783.196C755.483 780.498 772.878 779.351 789.685 773.516C810.349 765.45 824.71 752.495 833.599 731.992C842.049 712.499 845.002 691.373 837.12 671.233C836.201 668.884 831.595 660.954 832.426 658.943C834.84 659.591 837.298 663.703 838.498 665.873C839.83 668.281 840.607 671.211 841.466 673.826C846.969 690.586 845.761 707.819 840.435 724.504C833.71 745.569 821.432 762.915 801.458 773.063Q795.912 775.86 790.046 777.901Q784.18 779.943 778.096 781.193C810.296 782.134 842.539 781.748 874.749 782.333ZM842.671 531.069C839.295 532.579 836.634 534.141 835.219 537.721Q835.03 538.19 834.887 538.676Q834.745 539.162 834.652 539.659Q834.558 540.156 834.514 540.66Q834.47 541.164 834.475 541.67Q834.481 542.177 834.537 542.68Q834.593 543.182 834.697 543.678Q834.802 544.173 834.956 544.655Q835.109 545.137 835.309 545.602C836.265 547.798 837.959 549.393 840.206 550.224C842.354 551.018 844.085 551.075 846.285 550.569C849.528 549.097 852.278 547.139 853.599 543.686C854.518 541.285 854.463 538.638 853.303 536.323C852.096 533.915 849.799 532.227 847.26 531.425C845.772 530.955 844.212 530.993 842.671 531.069ZM290.659 277.466C287.481 279.049 284.903 280.768 283.76 284.301C282.798 287.272 283.216 290.35 284.724 293.054C285.437 294.332 286.071 295.093 287.486 295.492L288.43 294.688C291.096 290.705 294.226 287.159 297.054 283.31C296.198 281.245 295.519 279.071 293.35 278.045C292.468 277.627 291.612 277.546 290.659 277.466ZM650.995 495.937C648.075 497.345 645.985 499.268 644.847 502.385C643.996 504.714 644.269 507.354 645.428 509.524C646.934 512.342 649.252 513.467 652.229 514.278Q652.795 514.43 653.365 514.568C655.182 513.833 655.604 513.361 656.327 511.541C657.494 508.607 658.208 505.48 658.984 502.426C657.873 500.231 656.533 497.083 653.986 496.225C653.09 495.924 651.942 495.934 650.995 495.937ZM855.28 826.26C830.265 827.215 805.085 826.535 780.039 826.932L553.275 829.739L496.654 830.373C482.226 830.468 467.769 830.249 453.36 831.193C451.745 831.299 450.129 831.354 448.811 832.388C447.676 834.395 447.456 836.781 448.182 838.996C448.579 840.206 449.087 841.043 450.262 841.617C453.528 843.212 468.256 841.967 472.75 841.995L746.789 838.045Q795.298 837.714 843.797 836.637Q854.017 836.367 864.238 836.202C868.284 836.151 872.564 836.532 876.552 835.901C877.683 834.719 878.16 833.751 878.166 832.079C878.17 830.749 877.942 829.733 877.377 828.52C873.235 824.666 860.931 826.175 855.28 826.26ZM338.417 256.28L337.861 256.87C319.375 276.358 295.477 283.783 285.986 311.431Q284.911 314.538 284.111 317.727Q283.311 320.915 282.792 324.161Q282.273 327.408 282.038 330.687Q281.804 333.966 281.856 337.253C282.177 354.578 289.02 372.743 301.695 384.819C318.384 400.718 339.921 407.006 362.563 406.382C368.089 406.23 373.948 405.839 379.391 404.812L380.376 404.21C384.398 384.857 392.795 370.48 406.329 356.275C406.193 356.121 406.055 355.969 405.921 355.814C404.797 354.519 404.181 353.815 403.973 352.099L404.326 351.247C409.995 349.275 421.548 357.513 425.943 347.723C427.381 344.518 427.288 339.952 425.956 336.723C424.804 333.93 422.577 331.894 419.732 330.898C415.563 329.44 410.86 330.24 407.012 332.237C405.751 332.892 404.541 333.7 403.345 334.466C374.977 322.48 354.501 295.497 343.211 267.567C342.085 264.783 340.454 258.031 338.417 256.28ZM369.035 522.62C368.111 516.023 363.644 487.051 365.118 482.287C366.04 481.357 366.182 481.156 367.439 480.858C368.386 481.335 368.631 481.373 369.008 482.428C370.327 486.126 369.525 491.263 369.907 495.247C370.816 504.728 372.104 514.335 373.53 523.752C376.31 542.101 380.903 559.686 385.397 577.654C394.274 577.964 403.203 577.58 412.087 577.533C422.396 577.479 432.785 577.721 443.082 577.382C436.99 532.826 437.171 485.147 418.989 443.345C404.532 441.782 392.354 438.592 382.798 426.797C378.942 422.036 375.443 416.326 373.686 410.431C368.466 411.012 363.238 411.554 357.979 411.521C356.137 418.468 353.359 424.838 346.845 428.635C341.992 431.464 336.017 432.333 330.602 430.775Q330.133 430.64 329.672 430.482Q329.211 430.323 328.759 430.141Q328.306 429.958 327.864 429.753Q327.422 429.548 326.991 429.32Q326.559 429.093 326.14 428.843Q325.722 428.593 325.316 428.322Q324.911 428.052 324.519 427.76Q324.128 427.469 323.753 427.158Q323.377 426.847 323.018 426.517Q322.659 426.187 322.318 425.839Q321.976 425.491 321.653 425.125Q321.33 424.76 321.026 424.379Q320.722 423.997 320.438 423.601Q320.154 423.205 319.891 422.794Q319.628 422.384 319.386 421.96Q319.145 421.536 318.925 421.101C316.067 415.559 316.27 411.235 317.012 405.316C317.091 404.69 317.483 403.186 317.364 402.607C317.156 401.595 316.4 400.919 315.423 400.657C309.669 399.116 294.294 408.367 289.521 412.114C285.934 414.931 282.233 417.963 279.06 421.232C274.982 425.436 270.215 433.584 265.144 436.085L264.189 435.939C263.631 434.433 264.228 432.879 264.878 431.487C267.065 426.801 271.207 423.725 274.017 419.524C261.682 409.655 248.558 400.74 236.203 390.842C226.765 383.281 216.941 372.394 206.42 366.763C195.882 383.028 179.965 398.858 163.363 408.908C173.659 424.923 186.241 441.684 199.047 455.778C212.76 470.87 227.727 484.989 240.728 500.698C243.069 491.071 251.026 460.608 257.189 454.254L258.188 453.88L259.459 454.489C260.194 457.265 251.275 479.858 249.682 485.174C238.527 522.398 225.752 586.805 229.85 625.013C249.181 629.343 268.885 631.176 288.599 632.703C303.342 633.845 319.339 635.181 334.029 633.417C332.876 624.006 331.848 587.746 336.633 581.223C338.589 578.556 343.955 578.243 346.986 578.141C358.255 577.761 369.572 578.187 380.831 577.643C376.086 559.452 371.853 541.221 369.035 522.62Z"/>
	<path d="M674.879 508.559C682.8 508.196 691.32 508.994 698.213 513.281C702.077 515.684 706.466 520.347 707.405 524.934C707.704 526.399 707.572 527.346 706.761 528.582C705.26 528.989 704.996 528.707 703.591 528.151C697.007 520.961 692.278 516.885 682.196 516.263C679.192 516.077 676.189 515.988 673.248 515.288C671.803 514.945 670.135 514.559 668.916 513.689C668.279 513.233 668.492 513.312 668.387 512.413C669.756 510.139 672.487 509.292 674.879 508.559Z"/>
	<path d="M748.833 548.197C750.076 548.53 750.688 548.917 751.484 549.956C752.916 551.822 752.835 554.905 752.511 557.101C751.789 562 749.92 567.53 745.859 570.559C744.74 570.283 743.698 570.023 742.937 569.077C741.849 567.724 741.668 565.703 741.754 564.04C742.026 558.722 744.797 551.691 748.833 548.197Z"/>
	<path d="M691.995 531.875C692.644 532.163 693.265 532.523 693.892 532.857C695.222 535.261 695.054 537.532 694.66 540.197C693.963 544.907 692.117 551.111 688.186 554.028C687.006 553.553 686.367 553.157 685.48 552.243C684.382 549.239 684.594 546.302 685.334 543.222C686.384 538.847 688.006 534.304 691.995 531.875Z"/>
	<path d="M702.546 588.7Q702.791 588.597 703.047 588.527Q703.304 588.457 703.567 588.422Q703.83 588.387 704.096 588.387Q704.362 588.386 704.625 588.421Q704.889 588.456 705.145 588.526Q705.402 588.595 705.647 588.698Q705.892 588.8 706.121 588.935Q706.35 589.069 706.56 589.232Q706.77 589.395 706.956 589.585Q707.142 589.774 707.302 589.987Q707.461 590.199 707.591 590.431Q707.721 590.662 707.82 590.909Q707.918 591.156 707.983 591.414Q708.048 591.671 708.078 591.935Q708.109 592.199 708.104 592.465Q708.099 592.73 708.059 592.993Q708.019 593.256 707.945 593.511Q707.871 593.766 707.763 594.009Q707.656 594.252 707.518 594.479Q707.379 594.706 707.212 594.912Q707.045 595.119 706.852 595.301Q706.659 595.484 706.443 595.64Q706.228 595.795 705.994 595.921Q705.76 596.046 705.511 596.14Q705.329 596.208 705.141 596.259Q704.954 596.31 704.762 596.342Q704.57 596.374 704.376 596.387Q704.182 596.401 703.988 596.395Q703.794 596.39 703.601 596.366Q703.408 596.342 703.219 596.299Q703.029 596.256 702.844 596.195Q702.66 596.134 702.482 596.056Q702.304 595.977 702.135 595.882Q701.965 595.786 701.806 595.675Q701.647 595.564 701.499 595.438Q701.351 595.311 701.216 595.171Q701.081 595.031 700.961 594.879Q700.84 594.727 700.734 594.563Q700.629 594.4 700.54 594.227Q700.451 594.055 700.379 593.874Q700.307 593.693 700.253 593.507Q700.199 593.32 700.163 593.129Q700.127 592.938 700.11 592.744Q700.093 592.551 700.095 592.357Q700.096 592.162 700.117 591.969Q700.137 591.776 700.176 591.585Q700.216 591.395 700.273 591.209Q700.33 591.023 700.405 590.844Q700.48 590.665 700.573 590.494Q700.665 590.323 700.773 590.161Q700.881 590 701.005 589.85Q701.128 589.699 701.265 589.562Q701.402 589.424 701.552 589.301Q701.702 589.177 701.864 589.069Q702.025 588.96 702.196 588.868Q702.367 588.775 702.546 588.7Z"/>
	<path d="M308.958 283.89C309.725 283.894 310.495 283.884 311.258 283.987C315.581 284.57 318.555 287.965 321.061 291.218C319.142 298.353 311.377 314.843 306.375 320.28C306.178 320.258 305.978 320.257 305.785 320.212C304.498 319.912 304.206 319.709 303.427 318.722C303.757 313.167 313.423 298.699 316.002 292.312C316.083 292.111 316.16 291.908 316.24 291.706C314.136 290.532 310.281 289.043 309.032 286.968C308.298 285.75 308.62 285.151 308.958 283.89Z"/>
	<path d="M340.031 294.92C341.253 294.939 341.834 295.168 342.976 295.556L343.324 296.448C341.759 299.81 336.668 301.494 333.498 302.986C333.229 302.93 332.954 302.903 332.692 302.819C331.521 302.443 330.668 301.886 330.261 300.769C331.714 297.774 337.026 296.431 340.031 294.92Z"/>
	<path d="M153.219 336.826C154.363 336.979 155.466 337.129 156.544 337.565C161.112 339.413 165.272 345.281 167.017 349.774C168.161 352.721 168.846 355.162 167.511 358.112C163.02 356.912 161.643 348.441 158.691 344.896C157.145 343.039 153.95 341.781 152.84 339.751C152.456 339.048 153.042 337.604 153.219 336.826Z"/>
	<path fill="#FBF8FC" d="M194.741 274.522C197.189 274.389 199.393 274.751 201.736 275.476C206.317 276.892 210.748 279.714 212.887 284.158C213.62 285.68 213.584 286.561 213.054 288.132C211.602 288.716 210.647 287.993 209.213 287.491Q197.983 283.241 186.693 279.154C189.326 277.286 191.801 275.84 194.741 274.522Z"/>
	<path d="M164.63 171.936C165.217 171.912 165.329 171.894 165.969 171.931C168.962 172.101 171.771 175.545 173.676 177.64C179.582 184.133 198.841 208.27 198.484 216.134C198.303 216.184 198.124 216.241 197.942 216.286C196.479 216.645 195.891 216.638 194.647 215.876C189.865 206.036 183.276 196.549 176.323 188.132C172.927 184.02 169.113 180.066 165.948 175.794C165.002 174.517 164.805 173.497 164.63 171.936Z"/>
	<path d="M266.644 177.41C267.722 178.005 267.823 178.174 268.44 179.251C267.664 182.767 260.873 186.41 257.996 188.579C250.856 193.961 245.499 200.218 240.648 207.716C238.834 210.521 237.453 213.55 235.318 216.132C234.303 215.791 233.719 215.501 232.922 214.784C232.592 213.705 232.607 212.919 232.939 211.829C236.365 200.602 256.099 182.729 266.644 177.41Z"/>
	<path d="M121.515 243.087Q122.796 242.954 124.081 242.875C133.444 242.321 159.56 245.585 166.496 251.684C167.074 253.238 166.789 253.621 166.368 255.183C158.178 254.009 149.265 249.707 140.018 248.389C135.398 247.731 124.891 249.042 121.547 246.189C121.078 244.75 121.13 244.563 121.515 243.087Z"/>
	<path d="M627.32 386.221Q627.45 386.171 627.582 386.127Q627.714 386.083 627.848 386.045Q627.983 386.007 628.118 385.976Q628.254 385.945 628.392 385.921Q628.529 385.897 628.667 385.879Q628.805 385.861 628.944 385.85Q629.083 385.839 629.222 385.835Q629.362 385.831 629.501 385.833Q629.64 385.836 629.779 385.845Q629.918 385.854 630.057 385.87Q630.195 385.886 630.333 385.909Q630.47 385.931 630.606 385.961Q630.743 385.99 630.877 386.026Q631.012 386.062 631.145 386.104Q631.277 386.146 631.408 386.195Q631.538 386.244 631.667 386.299Q631.795 386.354 631.92 386.415Q632.045 386.476 632.167 386.543Q632.289 386.61 632.408 386.683Q632.527 386.756 632.642 386.835Q632.757 386.914 632.868 386.998Q632.979 387.082 633.086 387.171Q633.193 387.261 633.295 387.355Q633.397 387.45 633.495 387.549Q633.593 387.648 633.686 387.752Q633.778 387.856 633.866 387.965Q633.954 388.073 634.036 388.185Q634.118 388.298 634.195 388.414Q634.272 388.53 634.343 388.65Q634.414 388.77 634.479 388.893Q634.544 389.017 634.603 389.143Q634.662 389.269 634.715 389.398Q634.768 389.527 634.814 389.658Q634.861 389.79 634.901 389.923Q634.941 390.056 634.975 390.192Q635.008 390.327 635.036 390.463Q635.063 390.6 635.083 390.738Q635.103 390.876 635.117 391.014Q635.131 391.153 635.138 391.292Q635.145 391.431 635.145 391.571Q635.145 391.71 635.138 391.849Q635.132 391.988 635.119 392.127Q635.105 392.266 635.085 392.404Q635.065 392.541 635.039 392.678Q635.012 392.815 634.979 392.95Q634.945 393.086 634.906 393.219Q634.866 393.353 634.82 393.484Q634.773 393.615 634.721 393.745Q634.668 393.874 634.61 394Q634.551 394.126 634.486 394.25Q634.422 394.373 634.351 394.493Q634.28 394.613 634.204 394.73Q634.127 394.846 634.045 394.959Q633.964 395.071 633.876 395.18Q633.789 395.289 633.696 395.393Q633.604 395.497 633.507 395.597Q633.409 395.696 633.307 395.791Q633.205 395.886 633.098 395.975Q632.992 396.065 632.881 396.15Q632.77 396.234 632.655 396.313Q632.541 396.392 632.422 396.465Q632.304 396.539 632.182 396.606Q632.06 396.674 631.935 396.735Q631.81 396.797 631.682 396.852Q631.507 396.928 631.328 396.992Q631.148 397.056 630.965 397.108Q630.782 397.159 630.596 397.199Q630.409 397.239 630.221 397.266Q630.032 397.293 629.843 397.308Q629.653 397.323 629.462 397.325Q629.272 397.327 629.082 397.317Q628.892 397.306 628.703 397.283Q628.514 397.26 628.326 397.225Q628.139 397.189 627.955 397.141Q627.771 397.094 627.59 397.034Q627.409 396.974 627.233 396.902Q627.056 396.83 626.885 396.747Q626.714 396.664 626.548 396.569Q626.383 396.475 626.224 396.37Q626.065 396.264 625.914 396.149Q625.763 396.034 625.619 395.908Q625.475 395.783 625.341 395.649Q625.206 395.514 625.08 395.371Q624.954 395.228 624.839 395.077Q624.723 394.926 624.617 394.767Q624.511 394.609 624.416 394.444Q624.321 394.279 624.238 394.108Q624.154 393.937 624.081 393.76Q624.009 393.584 623.949 393.404Q623.888 393.223 623.84 393.039Q623.791 392.855 623.755 392.668Q623.719 392.481 623.696 392.292Q623.672 392.103 623.661 391.912Q623.65 391.722 623.651 391.532Q623.653 391.341 623.667 391.151Q623.681 390.962 623.708 390.773Q623.735 390.584 623.774 390.398Q623.813 390.212 623.864 390.028Q623.916 389.845 623.979 389.665Q624.043 389.486 624.118 389.311Q624.193 389.136 624.279 388.966Q624.366 388.796 624.464 388.633Q624.561 388.469 624.67 388.313Q624.778 388.156 624.896 388.007Q625.015 387.858 625.143 387.717Q625.271 387.576 625.408 387.443Q625.545 387.311 625.69 387.188Q625.836 387.065 625.989 386.952Q626.142 386.839 626.303 386.737Q626.463 386.634 626.63 386.543Q626.797 386.451 626.97 386.37Q627.142 386.29 627.32 386.221Z"/>
	<path d="M256.617 249.098C261.418 249.234 272.333 247.484 276.156 250.235C276.613 251.637 276.414 251.969 276.034 253.42C272.248 253.405 268.467 253.639 264.683 253.715C262.045 253.767 258.151 254.159 256.148 252.22C255.945 250.767 256.07 250.477 256.617 249.098Z"/>
	<path d="M715.778 364.631C716.509 364.791 717.121 365.005 717.817 365.27C718.774 367.624 721.571 369.982 721.282 372.586C720.176 373.424 719.652 373.112 718.329 373.023C717.717 374.088 717.986 374.829 718.072 376.022C717.431 377.219 717.331 377.104 716.026 377.556C714.828 375.782 715.515 373.88 714.275 372.527C713.094 372.468 712.254 372.478 711.18 371.929C710.711 370.808 710.482 370.795 710.815 369.566C712.02 369.381 713.189 369.115 714.374 368.836C715.729 367.488 715.531 366.491 715.778 364.631Z"/>
	<path d="M890.091 518.692C891.024 518.929 891.779 519.08 892.484 519.798C893.383 520.712 893.791 521.959 893.697 523.226C893.534 525.438 892.549 526.436 890.908 527.709C890.14 527.46 889.557 527.223 888.938 526.668C887.929 525.766 887.401 524.604 887.449 523.244C887.526 521.079 888.581 520.013 890.091 518.692Z"/>
</svg>
