<svg t="1726020422735" class="icon" viewBox="0 0 1024 1024" version="1.1" xmlns="http://www.w3.org/2000/svg" p-id="72873" width="200" height="200"><path d="M686.457263 327.895579l53.894737 15.090526V410.677895l123.203368 37.564631v203.075369l-46.187789-15.090527v-22.528l-76.638316-29.103157-0.323368 111.831578-46.565053-14.874947 0.377263-112.963368-77.069473-30.073263v30.073263l-46.133895-15.090527V350.531368l115.442526 41.337264V327.895579z m53.894737 127.89221v78.95579l77.015579 26.300632V482.088421l-76.961684-26.300632z m-123.149474-41.391157v78.955789l69.254737 22.581895V440.751158l-69.254737-26.354526z" fill="#20acf3" p-id="72874"></path><path d="M177.852632 263.814737V54.918737l307.469473 103.208421L177.852632 263.760842zM524.395789 145.138526l323.368422-112.801684v218.112l-323.368422-105.310316z m-23.120842 18.324211l415.744 139.587368V859.621053L501.221053 724.237474V163.462737z m438.864842 726.231579V288.013474L154.785684 32.336842v239.400421l-77.015579 23.821474v579.098947l411.863579-131.610947c149.611789 48.882526 300.948211 97.711158 450.452211 146.593684zM334.848 309.786947L389.12 465.273263l54.595368 156.618105-60.254315 21.180632-23.228632-71.68-110.915368 39.612632c-7.868632 29.210947-15.737263 58.368-23.65979 87.417263-19.779368 7.006316-39.558737 13.850947-59.28421 20.803368l54.487579-192.512 54.864842-194.398316 59.176421-22.42021z m-29.264842 92.698948c-12.665263 47.696842-25.492211 95.393684-38.265263 143.144421l75.722105-27.432421-37.456842-115.712z" fill="#20acf3" p-id="72875"></path><path d="M713.566316 915.240421c-146.970947 89.734737-292.917895 100.890947-443.014737 7.706947l-8.030316 12.288c143.629474 89.088 286.504421 87.686737 433.583158 7.114106 8.623158-4.796632 17.084632-9.701053 25.438316-14.821053l17.030737 25.923368 38.642526-69.362526-80.680421 5.281684 16.976842 25.869474z" fill="#20acf3" p-id="72876"></path></svg>