<svg t="1726018951984" class="icon" viewBox="0 0 1349 1024" version="1.1" xmlns="http://www.w3.org/2000/svg" p-id="37560" width="200" height="200"><path d="M829.655343 309.555728l-69.421851-40.070333-158.409903-91.502199-391.406473 225.980717 158.677629 91.638722 69.156784 39.936469 172.038248 99.437366 391.131655-225.983376 0.135636-0.135636L829.655343 309.556614z m0 0" fill="#FFDDA8" p-id="37561"></path><path d="M597.852017 184.064667l-380.68766 219.899246 47.59859 27.37637 341.687347 195.70102 333.092616-190.806589 47.604796-27.377256-389.295689-224.792791z m0 0" fill="#DDA866" p-id="37562"></path><path d="M601.687953 184.064667v396.566858l47.337069 24.59361 342.084505-196.367677-389.421574-224.792791z m0 0" fill="#AA6838" p-id="37563"></path><path d="M610.289777 634.840834v389.159166l-171.637545-98.380644-69.557487-39.798173-158.676743-90.844408v-391.013749l158.676743 91.640495 69.557487 40.064127 171.637545 99.174072z m0 0" fill="#BC7C46" p-id="37564"></path><path d="M610.418321 634.840834v389.029735l391.13786-224.400066V408.993094l-391.13786 225.84774z m0 0" fill="#DDA866" p-id="37565"></path><path d="M595.341415 180.758864L447.373735 5.952927l-384.923413 216.592557v8.729481l147.96768 172.688061 8.063712 0.795201 376.994451-217.518075-0.13475-6.482174z m0 0" fill="#BC7C46" p-id="37566"></path><path d="M62.450322 222.675801L218.61735 404.759114l383.206239-220.823878-0.135636-6.610718L452.927731 0 62.450322 222.675801z m0 0" fill="#EDC893" p-id="37567"></path><path d="M798.185948 11.10622L608.031831 184.466257l383.077696 225.580013 10.844698-1.317356 187.631104-173.489468-2.773895-6.347425L803.871148 7.672759l-5.6852 3.434347z m0 0" fill="#BC7C46" p-id="37568"></path><path d="M991.109527 410.04627l195.701907-181.153362L797.785244 3.834163l-5.678994 3.435234-192.00072 175.342277 391.003997 227.434596z m0 0" fill="#EDC893" p-id="37569"></path><path d="M644.531294 939.373586l-2.773895 1.587743v-46.545415l2.773895-1.587742v46.545414z m0 0" fill="#4F2E16" p-id="37570"></path><path d="M654.047998 897.586967l-1.981354 3.176372-8.984797-5.953814-8.997208 16.400468-1.852809-1.059381 10.850017-19.834815 10.966151 7.27117z m17.197442 26.315215l-2.651557 1.58863V878.945397l2.65067-1.588629v46.545414z m0 0" fill="#4F2E16" p-id="37571"></path><path d="M680.894234 882.115563l-2.11699 3.176372-8.85448-5.952926-8.996321 16.399581-1.98224-1.059382 10.980334-19.834814 10.970584 7.271169z m0.663111 37.423208l-49.979761 28.82759c-0.796974 0.393611-1.324449 0.129431-1.324449-0.793428 0-0.793428 0.655132-1.85281 1.324449-2.245534l49.979761-28.828476c0.661338-0.399817 1.324449-0.135636 1.324449 0.793428 0 0.793428-0.663111 1.846604-1.324449 2.24642z m0 0" fill="#4F2E16" p-id="37572"></path><path d="M681.027211 932.23362l-49.057789 28.298342c-5.152406 3.040735-9.391706 0.529248-9.391705-5.422792v-56.727889c0-5.946721 4.237526-13.22321 9.391705-16.263945L681.027211 853.688677c5.158612-2.912191 9.384614-0.528361 9.384614 5.423679V915.833152c0 6.087676-4.224229 13.357959-9.384614 16.400468z m-49.056902-46.940798c-3.698527 2.109898-6.740149 7.269397-6.740149 11.63458v56.727002c0 4.229548 3.040735 5.946721 6.740149 3.834164l49.058675-28.433979c3.705619-2.110785 6.746355-7.269397 6.610718-11.634581l0.135637-56.727888c0-4.229548-3.040735-6.082357-6.746355-3.834164l-49.058675 28.433979z m135.798533-2.382058l-50.510781 29.222975c-5.287156 3.040735-9.649681 0.529248-9.649681-5.552224v-58.317404c0-6.082357 4.361638-13.616821 9.649681-16.657556l50.510781-29.09443c5.288043-3.040735 9.527342-0.529248 9.527342 5.552223v58.315631c0.129431 5.953813-4.10455 13.353527-9.527342 16.530785zM717.258947 834.646404c-3.834163 2.109898-6.875785 7.53535-6.875785 11.898761v58.315631c0 4.358978 3.040735 6.211788 6.875785 3.963594l50.510782-29.222974c3.705619-2.246421 6.875785-7.53535 6.875785-11.898761v-58.314745c0-4.365184-3.170166-6.210901-6.875785-3.962707L717.258947 834.646404z m0 0" fill="#4F2E16" p-id="37573"></path><path d="M742.520987 881.587202c-0.796974 0.39893-1.459198 0.13475-1.459199-0.794314v-41.779527c0-0.930837 0.661338-1.988446 1.459199-2.382057 0.785449-0.393611 1.317356-0.135636 1.317356 0.793428v41.786619c-0.001773 0.786336-0.53368 1.846604-1.317356 2.375851z m0 0" fill="#4F2E16" p-id="37574"></path><path d="M748.731002 877.887789l-12.431555 7.269396c-0.791655 0.39893-1.452993 0.13475-1.452993-0.793428 0-0.924632 0.661338-1.98224 1.45388-2.377624l12.430668-7.275602c0.793428-0.393611 1.449447 0 1.449446 0.793428 0 0.923745-0.654246 1.981354-1.449446 2.38383z m7.141739-52.764295v19.570634c0 5.287156-3.698527 11.634581-8.200234 14.281705l-10.181588 5.819063c-4.494615 2.648011-8.193142 0.529248-8.193142-4.758795v-19.569747l5.022976-2.913078v20.895083c0 0.792542 0.655132 1.187926 1.324448 0.792541 0.784563-0.393611 1.449447-1.452993 1.449447-2.381171v-20.88799l18.778093-10.848245z m0 0" fill="#4F2E16" p-id="37575"></path><path d="M601.687953 577.854084l-38.211317 22.081235 47.33175 27.104211 38.217523-21.817055-47.337956-27.368391z m0 0" fill="#C68B51" p-id="37576"></path><path d="M12.334925 344.725423L219.145711 405.287475l391.27261 221.753828-0.128544 7.405033-208.666255-51.56839L12.334925 351.736845v-7.012309z m0 0" fill="#DDA866" p-id="37577"></path><path d="M219.940912 403.963913L12.334925 344.724536l389.288597 231.011671 208.794799 51.30421-390.477409-223.077391z m0 0" fill="#EDC893" p-id="37578"></path><path d="M996.268139 415.204882L610.418321 627.041303l0.135636 8.064598 196.094632 47.868976 389.420687-221.882372v-6.611605l-199.802024-39.276018z m0 0" fill="#BC7C46" p-id="37579"></path><path d="M991.109527 408.857458L610.418321 627.041303l196.229381 49.321969 389.421574-221.882372-194.380118-45.751986h-10.577858v0.128544z m0 0" fill="#EDC893" p-id="37580"></path></svg>