<svg t="1726020215111" class="icon" viewBox="0 0 1024 1024" version="1.1" xmlns="http://www.w3.org/2000/svg" p-id="61612" width="200" height="200"><path d="M511.5 64.1c-9.1 0-20 0-32 12-95.9 91.8-287.8 115.8-287.8 115.8-35.2 0-63.9 28.8-63.9 63.9v351.5c0 95.9 191.9 351.5 383.7 351.5 191.9 0 383.7-255.6 383.7-351.5V255.8c0-35.1-28.8-63.9-63.9-63.9 0 0-191.8-22-287.8-113.8-12-14-22.8-14-32-14z" fill="#7cd0fd" p-id="61613"></path><path d="M831.3 192.9s-191.8-22-287.8-113.8c-11.8-13.8-22.5-14-31.5-14V512h383.2V256.8c0-35.1-28.7-63.9-63.9-63.9zM512 512H127.9v95.3c0 95.9 191.9 351.5 383.7 351.5h0.5V512z" fill="#20acf3" p-id="61614" data-spm-anchor-id="a313x.search_index.0.i43.601b3a811b2Uvl" class="selected"></path></svg>